<?xml version="1.0" standalone="no"?>
<!DOCTYPE svg PUBLIC "-//W3C//DTD SVG 20010904//EN"
 "http://www.w3.org/TR/2001/REC-SVG-20010904/DTD/svg10.dtd">
<svg version="1.0" xmlns="http://www.w3.org/2000/svg"
 width="512.000000pt" height="512.000000pt" viewBox="0 0 512.000000 512.000000"
 preserveAspectRatio="xMidYMid meet">
<metadata>
Created by potrace 1.14, written by Peter Selinger 2001-2017
</metadata>
<g transform="translate(0.000000,512.000000) scale(0.100000,-0.100000)"
fill="#000000" stroke="none">
<path d="M2389 4706 c-2 -2 -34 -6 -70 -10 -319 -29 -705 -174 -983 -371 l-85
-59 -4 -81 c-5 -92 0 -608 7 -645 2 -14 7 -56 10 -95 4 -38 9 -81 11 -95 2
-14 7 -45 10 -70 6 -55 23 -152 44 -256 l6 -32 45 67 c237 352 517 677 783
912 22 19 51 45 65 59 86 83 363 293 522 396 115 74 304 186 334 197 12 5 16
11 10 16 -9 9 -171 43 -264 56 -50 7 -435 17 -441 11z"/>
<path d="M3235 4484 c-153 -82 -161 -87 -315 -183 -215 -133 -590 -420 -590
-451 0 -3 10 -6 23 -7 49 -1 234 -14 257 -18 24 -4 69 -10 140 -19 65 -8 234
-36 310 -52 142 -28 464 -115 560 -151 8 -4 20 -7 25 -8 29 -7 265 -100 367
-144 154 -67 473 -229 513 -260 34 -27 105 -59 105 -48 0 21 -65 205 -102 292
-102 234 -251 455 -434 640 -43 44 -103 100 -133 125 -29 25 -59 50 -65 55
-30 27 -130 98 -206 145 -72 45 -294 160 -310 160 -3 0 -68 -34 -145 -76z"/>
<path d="M987 4018 c-306 -330 -513 -774 -563 -1213 -10 -82 -11 -436 -2 -480
4 -16 7 -33 7 -38 1 -7 114 -84 166 -113 11 -6 70 -41 131 -76 217 -128 514
-266 747 -347 49 -17 90 -31 92 -31 2 0 -33 78 -76 173 -100 215 -91 195 -134
307 -76 194 -189 571 -210 700 -3 19 -12 64 -20 100 -20 94 -50 283 -60 386
-4 32 -8 73 -10 89 -10 84 -19 278 -19 423 0 89 -2 162 -5 162 -2 0 -22 -19
-44 -42z"/>
<path d="M3567 3353 c8 -21 18 -42 23 -48 6 -9 29 -58 113 -246 118 -262 262
-749 307 -1034 6 -38 13 -83 16 -100 2 -16 6 -41 9 -55 2 -14 7 -43 9 -65 3
-22 7 -62 11 -90 17 -148 30 -369 30 -522 0 -78 4 -139 9 -136 7 5 33 32 100
107 32 36 151 198 191 260 155 242 283 614 312 904 10 98 10 425 0 475 -7 33
-17 44 -80 84 -305 196 -613 348 -941 464 -60 22 -112 39 -117 39 -4 0 -1 -17
8 -37z"/>
<path d="M2220 2895 c0 -9 11 -21 25 -27 l25 -11 0 -233 0 -232 -25 -6 c-14
-4 -25 -13 -25 -21 0 -12 16 -15 80 -15 67 0 80 3 80 16 0 9 -9 18 -20 21 -11
3 -20 10 -21 17 0 6 -1 66 -2 134 -2 145 4 157 80 156 72 0 75 -9 75 -189 0
-115 1 -112 -22 -118 -11 -3 -20 -12 -20 -21 0 -13 13 -16 78 -16 61 0 79 3
79 14 0 8 -11 19 -24 25 -12 6 -23 16 -24 23 0 7 -1 69 -3 138 -1 75 -7 134
-14 147 -32 58 -118 72 -170 28 -17 -14 -32 -25 -34 -25 -2 0 -3 47 -2 105 l2
105 -59 0 c-46 0 -59 -3 -59 -15z"/>
<path d="M1628 2752 c-51 -4 -104 -54 -114 -106 -5 -30 -2 -49 15 -82 11 -24
26 -44 32 -44 6 0 -3 -12 -20 -26 -41 -34 -43 -83 -5 -113 l26 -20 -25 -12
c-49 -22 -62 -95 -23 -134 22 -22 81 -45 118 -45 43 0 116 23 141 44 48 42 64
106 37 157 -14 25 -65 51 -98 49 -15 -1 -51 -2 -80 -1 -46 1 -54 4 -64 26 -18
39 1 52 69 48 95 -6 146 39 145 130 0 22 -5 44 -11 50 -20 20 -12 27 29 27 33
0 40 3 40 20 0 11 -3 20 -7 20 -5 1 -40 3 -80 5 -40 2 -76 5 -80 7 -4 2 -25 2
-45 0z m63 -51 c21 -16 24 -28 24 -81 0 -53 -3 -65 -24 -81 -13 -10 -31 -19
-41 -19 -10 0 -28 9 -41 19 -21 16 -24 28 -24 81 0 53 3 65 24 81 13 10 31 19
41 19 10 0 28 -9 41 -19z m64 -367 c54 -72 -52 -150 -150 -110 -41 17 -58 48
-50 87 9 41 29 49 113 45 57 -2 75 -7 87 -22z"/>
<path d="M2050 2753 c-93 -11 -139 -50 -142 -118 -2 -53 28 -86 107 -116 73
-27 101 -55 90 -88 -18 -59 -149 -56 -157 3 -2 13 -12 22 -24 24 -20 3 -22 -1
-20 -45 1 -47 1 -47 45 -60 52 -15 125 -9 158 12 31 20 63 73 63 103 0 46 -31
81 -90 102 -106 38 -119 51 -106 105 5 18 15 26 40 31 47 8 74 -2 91 -37 25
-47 45 -38 45 20 0 48 -1 49 -37 58 -21 4 -49 7 -63 6z"/>
<path d="M2770 2746 c-30 -6 -61 -15 -67 -19 -12 -8 -19 -77 -8 -77 3 0 22 11
43 25 76 50 126 41 141 -25 12 -59 6 -66 -52 -66 -60 0 -114 -23 -141 -61 -21
-29 -25 -98 -7 -131 13 -24 70 -52 96 -47 11 2 25 4 32 4 7 1 28 15 48 32 32
29 35 29 35 10 0 -11 11 -28 24 -36 22 -14 28 -15 60 -1 25 10 36 21 36 36 0
17 -3 19 -18 11 -38 -20 -45 0 -46 143 -2 120 -4 139 -22 163 -29 39 -85 53
-154 39z m111 -234 c3 -80 -4 -92 -57 -110 -63 -20 -111 34 -83 94 15 30 58
50 111 52 26 1 28 -2 29 -36z"/>
<path d="M3083 2737 c-46 -9 -49 -26 -7 -45 24 -11 24 -13 24 -152 0 -140 0
-140 -25 -152 -14 -6 -25 -17 -25 -25 0 -11 18 -13 87 -11 89 3 122 20 64 33
-17 4 -32 10 -32 13 -1 4 -2 58 -3 120 -2 112 -2 113 27 142 16 17 38 30 47
30 19 0 45 -21 52 -42 2 -6 12 -9 21 -5 20 8 24 76 5 95 -7 7 -29 12 -49 12
-32 0 -43 -7 -73 -42 l-36 -42 0 42 c0 45 0 45 -77 29z"/>
<path d="M3475 2740 c-63 -26 -103 -103 -103 -199 1 -123 61 -195 163 -195 69
1 145 42 145 80 l0 25 -31 -22 c-38 -27 -114 -35 -148 -17 -32 17 -58 63 -63
108 l-3 35 108 2 c60 1 116 4 124 7 12 5 14 17 10 51 -7 55 -18 76 -58 109
-24 20 -41 26 -77 25 -26 0 -56 -4 -67 -9z m109 -49 c23 -25 34 -91 15 -92
-90 -6 -159 -2 -159 8 0 20 21 67 37 85 22 24 85 24 107 -1z"/>
<path d="M3730 2045 c-119 -178 -337 -458 -437 -562 -261 -273 -347 -354 -554
-520 -212 -169 -418 -311 -615 -420 -57 -32 -104 -61 -104 -64 0 -7 148 -37
270 -55 82 -12 489 -13 535 -1 11 2 43 8 70 11 83 11 264 57 370 93 185 64
454 209 589 317 19 15 20 32 20 318 1 263 -4 405 -19 523 -2 17 -6 53 -10 81
-3 29 -7 60 -9 70 -2 11 -7 42 -10 69 -6 45 -33 185 -40 210 -1 5 -27 -26 -56
-70z"/>
<path d="M497 1953 c80 -248 144 -386 268 -574 67 -102 69 -105 158 -211 187
-221 415 -399 683 -533 l127 -64 81 41 c303 152 682 403 891 590 17 14 43 38
60 52 16 14 27 27 25 29 -3 3 -54 8 -113 11 -60 4 -125 9 -145 11 -20 3 -57 7
-82 10 -25 3 -56 7 -70 10 -14 2 -43 7 -65 10 -119 17 -173 26 -335 60 -440
92 -1012 320 -1425 569 -33 20 -63 36 -67 36 -4 0 0 -21 9 -47z"/>
</g>
</svg>
